<?xml version="1.0" encoding="UTF-8"?>
<svg width="512" height="512" viewBox="0 0 512 512" fill="none" xmlns="http://www.w3.org/2000/svg">
  <rect width="512" height="512" rx="256" fill="#4F46E5"/>
  <path d="M384 256C384 326.692 326.692 384 256 384C185.308 384 128 326.692 128 256C128 185.308 185.308 128 256 128C326.692 128 384 185.308 384 256ZM170.667 256C170.667 303.069 208.931 341.333 256 341.333C303.069 341.333 341.333 303.069 341.333 256C341.333 208.931 303.069 170.667 256 170.667C208.931 170.667 170.667 208.931 170.667 256Z" fill="white"/>
  <path d="M256 298.667C279.455 298.667 298.667 279.455 298.667 256C298.667 232.545 279.455 213.333 256 213.333C232.545 213.333 213.333 232.545 213.333 256C213.333 279.455 232.545 298.667 256 298.667Z" fill="white"/>
</svg> 
